<svg width="298" height="229" viewBox="0 0 298 229" fill="none" xmlns="http://www.w3.org/2000/svg">
<g filter="url(#filter0_d_679_10206)">
<path d="M38.888 186.5V151.14H44.608C47.3467 154.711 49.9467 158.489 52.408 162.476C54.8693 166.428 57.1053 170.501 59.116 174.696L58.648 164.14V151.14H64.628V186.5H58.908C56.6893 182.132 54.384 177.747 51.992 173.344C49.6347 168.907 47.1213 164.729 44.452 160.812L44.868 172.98V186.5H38.888ZM93.6241 184.992C91.8214 185.72 90.1228 186.24 88.5281 186.552C86.9334 186.864 85.4254 187.02 84.0041 187.02C80.0868 187.02 77.1228 185.911 75.1121 183.692C73.1014 181.473 72.0961 178.527 72.0961 174.852V171.732C72.0961 169.271 72.5468 167.139 73.4481 165.336C74.3494 163.533 75.6321 162.129 77.2961 161.124C78.9601 160.119 80.9188 159.616 83.1721 159.616C85.0094 159.616 86.7254 159.997 88.3201 160.76C89.9494 161.488 91.2668 162.649 92.2721 164.244C93.3121 165.804 93.8321 167.815 93.8321 170.276C93.8321 171.004 93.7801 171.784 93.6761 172.616C93.5721 173.413 93.3988 174.263 93.1561 175.164H77.8681C77.9374 177.313 78.4748 178.925 79.4801 180C80.4854 181.075 82.0974 181.612 84.3161 181.612C85.4948 181.612 86.7081 181.473 87.9561 181.196C89.2388 180.919 90.5561 180.503 91.9081 179.948L93.6241 184.992ZM83.1721 164.66C81.5774 164.66 80.3294 165.18 79.4281 166.22C78.5614 167.225 78.0588 168.681 77.9201 170.588H87.9041C87.9388 170.415 87.9561 170.259 87.9561 170.12C87.9561 169.947 87.9561 169.791 87.9561 169.652C87.9561 167.988 87.4881 166.74 86.5521 165.908C85.6161 165.076 84.4894 164.66 83.1721 164.66ZM133.279 160.136L126.519 186.5H120.019L115.651 166.688L111.023 186.5H104.523L97.7634 160.136H103.899L106.447 170.588L108.215 180.104L112.687 160.136H118.719L123.347 180.312L125.011 170.64L127.507 160.136H133.279ZM144.371 172.512C144.371 175.043 144.926 177.123 146.035 178.752C147.145 180.347 148.965 181.144 151.495 181.144C152.535 181.144 153.61 181.005 154.719 180.728C155.863 180.451 157.267 179.983 158.931 179.324L160.855 184.732C158.983 185.564 157.25 186.153 155.655 186.5C154.095 186.847 152.587 187.02 151.131 187.02C148.219 187.02 145.775 186.396 143.799 185.148C141.858 183.9 140.402 182.184 139.431 180C138.461 177.816 137.975 175.32 137.975 172.512V165.076C137.975 162.268 138.461 159.772 139.431 157.588C140.402 155.404 141.858 153.705 143.799 152.492C145.775 151.244 148.219 150.62 151.131 150.62C152.553 150.62 154.026 150.793 155.551 151.14C157.077 151.452 158.741 152.007 160.543 152.804L158.619 158.316C157.025 157.657 155.69 157.189 154.615 156.912C153.541 156.635 152.501 156.496 151.495 156.496C148.965 156.496 147.145 157.293 146.035 158.888C144.926 160.483 144.371 162.545 144.371 165.076V172.512ZM187.149 171.732V174.852C187.149 178.527 186.144 181.473 184.133 183.692C182.122 185.911 179.28 187.02 175.605 187.02C171.93 187.02 169.088 185.911 167.077 183.692C165.066 181.473 164.061 178.527 164.061 174.852V171.732C164.061 168.057 165.049 165.128 167.025 162.944C169.036 160.725 171.896 159.616 175.605 159.616C179.314 159.616 182.157 160.725 184.133 162.944C186.144 165.128 187.149 168.057 187.149 171.732ZM181.013 171.732C181.013 169.617 180.545 167.971 179.609 166.792C178.673 165.579 177.338 164.972 175.605 164.972C173.872 164.972 172.537 165.579 171.601 166.792C170.665 167.971 170.197 169.617 170.197 171.732V174.852C170.197 176.967 170.665 178.631 171.601 179.844C172.537 181.057 173.872 181.664 175.605 181.664C177.338 181.664 178.673 181.057 179.609 179.844C180.545 178.631 181.013 176.967 181.013 174.852V171.732ZM209.298 186.5V182.912C207.703 184.507 206.317 185.599 205.138 186.188C203.994 186.743 202.798 187.02 201.55 187.02C198.707 187.02 196.489 185.945 194.894 183.796C193.334 181.647 192.554 178.631 192.554 174.748V171.94C192.554 168.161 193.507 165.163 195.414 162.944C197.321 160.725 200.077 159.616 203.682 159.616C204.583 159.616 205.467 159.703 206.334 159.876C207.235 160.049 208.119 160.292 208.986 160.604V148.02H214.966V186.5H209.298ZM198.69 174.748C198.69 177.071 199.071 178.769 199.834 179.844C200.631 180.919 201.741 181.456 203.162 181.456C203.959 181.456 204.809 181.231 205.71 180.78C206.611 180.295 207.703 179.393 208.986 178.076V166.012C207.287 165.319 205.727 164.972 204.306 164.972C202.295 164.972 200.857 165.596 199.99 166.844C199.123 168.092 198.69 169.791 198.69 171.94V174.748ZM243.226 184.992C241.423 185.72 239.724 186.24 238.13 186.552C236.535 186.864 235.027 187.02 233.606 187.02C229.688 187.02 226.724 185.911 224.714 183.692C222.703 181.473 221.698 178.527 221.698 174.852V171.732C221.698 169.271 222.148 167.139 223.05 165.336C223.951 163.533 225.234 162.129 226.898 161.124C228.562 160.119 230.52 159.616 232.774 159.616C234.611 159.616 236.327 159.997 237.922 160.76C239.551 161.488 240.868 162.649 241.874 164.244C242.914 165.804 243.434 167.815 243.434 170.276C243.434 171.004 243.382 171.784 243.278 172.616C243.174 173.413 243 174.263 242.758 175.164H227.47C227.539 177.313 228.076 178.925 229.082 180C230.087 181.075 231.699 181.612 233.918 181.612C235.096 181.612 236.31 181.473 237.558 181.196C238.84 180.919 240.158 180.503 241.51 179.948L243.226 184.992ZM232.774 164.66C231.179 164.66 229.931 165.18 229.03 166.22C228.163 167.225 227.66 168.681 227.522 170.588H237.506C237.54 170.415 237.558 170.259 237.558 170.12C237.558 169.947 237.558 169.791 237.558 169.652C237.558 167.988 237.09 166.74 236.154 165.908C235.218 165.076 234.091 164.66 232.774 164.66ZM265.195 165.596C263.566 165.596 262.006 165.856 260.515 166.376C259.059 166.861 257.655 167.659 256.303 168.768V186.5H250.323V160.136H255.991V164.192C257.759 162.528 259.336 161.349 260.723 160.656C262.11 159.963 263.6 159.616 265.195 159.616V165.596Z" fill="white"/>
</g>
<path d="M168.999 36.9133C168.639 36.2838 169.093 35.5 169.819 35.5H192.184L218.84 81.7067H194.636L168.999 36.9133Z" fill="#4B7894"/>
<path d="M168.19 127.913H191.737C191.844 127.913 191.897 127.913 191.946 127.908C192.213 127.88 192.456 127.739 192.613 127.521C192.642 127.481 192.668 127.435 192.721 127.343L218.84 81.7064H194.636L168.19 127.913Z" fill="white"/>
<path d="M132.65 35.5H108.993C108.654 35.5 108.342 35.6813 108.173 35.9752L82 81.7067H106.204L132.65 35.5Z" fill="white"/>
<path d="M192.185 35.5H168.618C168.296 35.5 167.997 35.6633 167.824 35.9334L109.593 126.458C109.189 127.087 109.64 127.913 110.387 127.913H132.74L192.185 35.5Z" fill="#F2D388"/>
<path d="M124.653 103.034L132.65 127.914L121.099 108.365L124.653 103.034Z" fill="#D0B572"/>
<path d="M192.185 35.5L179.301 55.4933L195.295 40.8316L192.185 35.5Z" fill="#355E78"/>
<path d="M132.65 127.913H109.102C108.996 127.913 108.943 127.913 108.894 127.908C108.627 127.88 108.384 127.739 108.227 127.521C108.198 127.481 108.172 127.435 108.119 127.343L82 81.7064H106.204L132.65 127.913Z" fill="#5094BE"/>
<defs>
<filter id="filter0_d_679_10206" x="34.8879" y="148.02" width="234.307" height="47" filterUnits="userSpaceOnUse" color-interpolation-filters="sRGB">
<feFlood flood-opacity="0" result="BackgroundImageFix"/>
<feColorMatrix in="SourceAlpha" type="matrix" values="0 0 0 0 0 0 0 0 0 0 0 0 0 0 0 0 0 0 127 0" result="hardAlpha"/>
<feOffset dy="4"/>
<feGaussianBlur stdDeviation="2"/>
<feComposite in2="hardAlpha" operator="out"/>
<feColorMatrix type="matrix" values="0 0 0 0 0 0 0 0 0 0 0 0 0 0 0 0 0 0 0.25 0"/>
<feBlend mode="normal" in2="BackgroundImageFix" result="effect1_dropShadow_679_10206"/>
<feBlend mode="normal" in="SourceGraphic" in2="effect1_dropShadow_679_10206" result="shape"/>
</filter>
</defs>
</svg>
