<svg width="98" height="98" viewBox="0 0 98 98" fill="none" xmlns="http://www.w3.org/2000/svg">
<g filter="url(#filter0_d_679_10094)">
<path d="M57.2777 29.7532C59.4742 31.9468 60.7124 34.9211 60.7214 38.0253C60.7157 41.132 59.4791 44.1099 57.2823 46.3067C55.0854 48.5035 52.1076 49.7401 49.0009 49.7458C45.8967 49.7368 42.9224 48.4986 40.7289 46.3021C38.5353 44.1055 37.3011 41.1294 37.2964 38.0252C37.3045 34.9235 38.5402 31.9511 40.7335 29.7579C42.9267 27.5646 45.8991 26.3289 49.0008 26.3208C52.105 26.3255 55.0811 27.5596 57.2777 29.7532Z" fill="white" stroke="#194C66" stroke-width="2"/>
<path d="M33.142 64.6219C36.949 60.8148 42.1111 58.6739 47.4952 58.6689H50.5058C55.8898 58.6739 61.052 60.8149 64.8591 64.6219C68.6663 68.4291 70.8073 73.5914 70.8121 78.9756V88.9997H27.189V78.9751C27.1939 73.5911 29.3349 68.429 33.142 64.6219Z" fill="white" stroke="#194C66" stroke-width="2"/>
<path d="M18.2654 78.9742V78.975V89H14.3846C11.8957 89 9.50864 88.0113 7.74868 86.2513C5.98873 84.4914 5 82.1043 5 79.6154V10.3846C5 7.89566 5.98873 5.50864 7.74868 3.74868C9.50864 1.98873 11.8957 1 14.3846 1H83.6154C86.1043 1 88.4914 1.98873 90.2513 3.74868C92.0113 5.50864 93 7.89566 93 10.3846V79.6154C93 82.1043 92.0113 84.4914 90.2513 86.2513C88.4914 88.0113 86.1043 89 83.6154 89H79.7347V78.975V78.9743C79.7303 73.2592 78.0532 67.6703 74.9103 62.897C72.0499 58.5528 68.0891 55.0569 63.4437 52.7581C65.22 51.0264 66.6711 48.9839 67.7225 46.7275C68.9926 44.0018 69.6486 41.0306 69.6442 38.0236V38.0233C69.6351 32.5528 67.4566 27.3093 63.5867 23.4427C59.7168 19.5762 54.4713 17.4024 49.0008 17.3981L48.9985 17.3981C43.5308 17.4063 38.2894 19.5819 34.4232 23.4481C30.5569 27.3144 28.3813 32.5558 28.3731 38.0235C28.3687 41.0306 29.0248 44.0018 30.2948 46.7275C31.3461 48.9835 32.7967 51.0256 34.5726 52.7572C29.9236 55.0529 25.959 58.5475 23.0955 62.892C19.9491 67.6658 18.2699 73.2568 18.2654 78.9742Z" fill="white" stroke="#194C66" stroke-width="2"/>
</g>
<defs>
<filter id="filter0_d_679_10094" x="0" y="0" width="98" height="98" filterUnits="userSpaceOnUse" color-interpolation-filters="sRGB">
<feFlood flood-opacity="0" result="BackgroundImageFix"/>
<feColorMatrix in="SourceAlpha" type="matrix" values="0 0 0 0 0 0 0 0 0 0 0 0 0 0 0 0 0 0 127 0" result="hardAlpha"/>
<feOffset dy="4"/>
<feGaussianBlur stdDeviation="2"/>
<feComposite in2="hardAlpha" operator="out"/>
<feColorMatrix type="matrix" values="0 0 0 0 0 0 0 0 0 0 0 0 0 0 0 0 0 0 0.25 0"/>
<feBlend mode="normal" in2="BackgroundImageFix" result="effect1_dropShadow_679_10094"/>
<feBlend mode="normal" in="SourceGraphic" in2="effect1_dropShadow_679_10094" result="shape"/>
</filter>
</defs>
</svg>
